<svg width="22" height="22" viewBox="0 0 22 22" fill="none" xmlns="http://www.w3.org/2000/svg">
<mask id="path-1-inside-1" fill="white">
<path d="M19 11C19 15.4183 15.4183 19 11 19C6.58172 19 3 15.4183 3 11C3 6.58172 6.58172 3 11 3C15.4183 3 19 6.58172 19 11ZM6.50934 11C6.50934 13.4801 8.51988 15.4907 11 15.4907C13.4801 15.4907 15.4907 13.4801 15.4907 11C15.4907 8.51988 13.4801 6.50934 11 6.50934C8.51988 6.50934 6.50934 8.51988 6.50934 11Z"/>
</mask>
<path d="M19 11C19 15.4183 15.4183 19 11 19C6.58172 19 3 15.4183 3 11C3 6.58172 6.58172 3 11 3C15.4183 3 19 6.58172 19 11ZM6.50934 11C6.50934 13.4801 8.51988 15.4907 11 15.4907C13.4801 15.4907 15.4907 13.4801 15.4907 11C15.4907 8.51988 13.4801 6.50934 11 6.50934C8.51988 6.50934 6.50934 8.51988 6.50934 11Z" stroke="black" stroke-width="22" mask="url(#path-1-inside-1)"/>
</svg>
